<svg xmlns="http://www.w3.org/2000/svg" width="100" height="100" viewBox="0 0 100 100">
  <defs>
    <!-- 크레용 질감 필터 -->
    <filter id="crayon" x="-5%" y="-5%" width="110%" height="110%">
      <feTurbulence type="fractalNoise" baseFrequency="0.72" numOctaves="4" seed="3" result="grain"/>
      <feColorMatrix type="matrix" in="grain"
        values="0 0 0 0 0   0 0 0 0 0   0 0 0 0 0   0 0 0 -4 4.2" result="mask"/>
      <feComposite in="SourceGraphic" in2="mask" operator="in" result="textured"/>
      <feTurbulence type="turbulence" baseFrequency="0.02" numOctaves="2" seed="9" result="wiggle"/>
      <feDisplacementMap in="textured" in2="wiggle" scale="1.8" xChannelSelector="R" yChannelSelector="G"/>
    </filter>

    <!-- 외곽선용 더 거친 필터 -->
    <filter id="stroke-rough" x="-8%" y="-8%" width="116%" height="116%">
      <feTurbulence type="fractalNoise" baseFrequency="0.04" numOctaves="3" seed="7" result="n"/>
      <feDisplacementMap in="SourceGraphic" in2="n" scale="2.5" xChannelSelector="R" yChannelSelector="G"/>
    </filter>
  </defs>

  <!-- 흰 배경 (iOS 앱 아이콘 스타일) -->
  <rect width="100" height="100" rx="22" fill="#FAFAFA"/>

  <!-- 핀 외곽선 (거친 스트로크) -->
  <g filter="url(#stroke-rough)">
    <path d="M50 14 C34 14 22 26 22 40 C22 57 50 86 50 86 C50 86 78 57 78 40 C78 26 66 14 50 14Z"
      fill="none" stroke="#3BBFA0" stroke-width="5" stroke-linejoin="round"/>
    <circle cx="50" cy="39" r="12" fill="none" stroke="#3BBFA0" stroke-width="4"/>
  </g>

  <!-- 크레용 채색 레이어 (mint) -->
  <g filter="url(#crayon)">
    <!-- 핀 상단부 채색 -->
    <path d="M50 16 C36 16 25 27 25 40 C25 56 50 83 50 83 C50 83 75 56 75 40 C75 27 64 16 50 16Z"
      fill="#5ECFB0" opacity="0.85"/>
    <!-- 구멍 (흰색으로 덮기) -->
    <circle cx="50" cy="39" r="11" fill="white" opacity="0.95"/>
  </g>
</svg>
